<mxfile host="65bd71144e">
    <diagram id="wHN1LT8ExUjHsNpfMZFU" name="Page-1">
        <mxGraphModel dx="1741" dy="1649" grid="1" gridSize="10" guides="1" tooltips="1" connect="1" arrows="1" fold="1" page="1" pageScale="1" pageWidth="1100" pageHeight="850" math="0" shadow="0">
            <root>
                <mxCell id="0"/>
                <mxCell id="1" parent="0"/>
                <mxCell id="2" value="&lt;font style=&quot;font-size: 19px&quot;&gt;As a [&lt;font color=&quot;#3399ff&quot;&gt;type of user&lt;/font&gt;], I want [&lt;font color=&quot;#ff0080&quot;&gt;an action&lt;/font&gt;] so that [&lt;font color=&quot;#00ff00&quot;&gt;a benefit/a value&lt;/font&gt;]&lt;/font&gt;" style="text;html=1;strokeColor=none;fillColor=none;align=center;verticalAlign=middle;whiteSpace=wrap;rounded=0;" parent="1" vertex="1">
                    <mxGeometry x="-300" y="-30" width="670" height="110" as="geometry"/>
                </mxCell>
                <mxCell id="4" value="User Story" style="swimlane;fontStyle=0;childLayout=stackLayout;horizontal=1;startSize=26;horizontalStack=0;resizeParent=1;resizeParentMax=0;resizeLast=0;collapsible=1;marginBottom=0;" parent="1" vertex="1">
                    <mxGeometry x="-225" y="108" width="510" height="152" as="geometry">
                        <mxRectangle x="30" y="160" width="280" height="26" as="alternateBounds"/>
                    </mxGeometry>
                </mxCell>
                <mxCell id="5" value="As a user, I want to import my google calender events." style="text;align=left;verticalAlign=top;spacingLeft=4;spacingRight=4;overflow=hidden;rotatable=0;points=[[0,0.5],[1,0.5]];portConstraint=eastwest;fillColor=#008a00;strokeColor=#005700;fontColor=#ffffff;" parent="4" vertex="1">
                    <mxGeometry y="26" width="510" height="22" as="geometry"/>
                </mxCell>
                <mxCell id="6" value="As a user, I want to view all events, daily, weekly, monthly." style="text;align=left;verticalAlign=top;spacingLeft=4;spacingRight=4;overflow=hidden;rotatable=0;points=[[0,0.5],[1,0.5]];portConstraint=eastwest;fillColor=#008a00;fontColor=#ffffff;strokeColor=#008A00;" parent="4" vertex="1">
                    <mxGeometry y="48" width="510" height="26" as="geometry"/>
                </mxCell>
                <mxCell id="7" value="As a user, I want to add, delete and edit events." style="text;strokeColor=#005700;align=left;verticalAlign=top;spacingLeft=4;spacingRight=4;overflow=hidden;rotatable=0;points=[[0,0.5],[1,0.5]];portConstraint=eastwest;fillColor=#008a00;fontColor=#ffffff;" parent="4" vertex="1">
                    <mxGeometry y="74" width="510" height="26" as="geometry"/>
                </mxCell>
                <mxCell id="8" value="As a user, I want to add a todo list, and priority list with Add, edit, and delete" style="text;strokeColor=#A50040;fillColor=#d80073;align=left;verticalAlign=top;spacingLeft=4;spacingRight=4;overflow=hidden;rotatable=0;points=[[0,0.5],[1,0.5]];portConstraint=eastwest;labelBorderColor=none;fontColor=#ffffff;" parent="4" vertex="1">
                    <mxGeometry y="100" width="510" height="26" as="geometry"/>
                </mxCell>
                <mxCell id="9" value="As a user, I want to have a place to have daily journals" style="text;strokeColor=#001DBC;fillColor=#0050ef;align=left;verticalAlign=top;spacingLeft=4;spacingRight=4;overflow=hidden;rotatable=0;points=[[0,0.5],[1,0.5]];portConstraint=eastwest;labelBorderColor=none;fontColor=#ffffff;" parent="4" vertex="1">
                    <mxGeometry y="126" width="510" height="26" as="geometry"/>
                </mxCell>
                <mxCell id="10" value="User Story Key" style="swimlane;fontStyle=0;childLayout=stackLayout;horizontal=1;startSize=26;horizontalStack=0;resizeParent=1;resizeParentMax=0;resizeLast=0;collapsible=1;marginBottom=0;labelBackgroundColor=none;" parent="1" vertex="1">
                    <mxGeometry x="350" width="140" height="104" as="geometry"/>
                </mxCell>
                <mxCell id="zOiM6K3O5fvbIl3xmLAz-92" value="" style="endArrow=none;html=1;strokeWidth=4;fillColor=#60a917;strokeColor=#2D7600;" parent="10" edge="1">
                    <mxGeometry width="50" height="50" relative="1" as="geometry">
                        <mxPoint x="60" y="38.33000000000001" as="sourcePoint"/>
                        <mxPoint x="120" y="38.33000000000001" as="targetPoint"/>
                    </mxGeometry>
                </mxCell>
                <mxCell id="11" value="MVP" style="text;strokeColor=none;fillColor=none;align=left;verticalAlign=top;spacingLeft=4;spacingRight=4;overflow=hidden;rotatable=0;points=[[0,0.5],[1,0.5]];portConstraint=eastwest;" parent="10" vertex="1">
                    <mxGeometry y="26" width="140" height="26" as="geometry"/>
                </mxCell>
                <mxCell id="zOiM6K3O5fvbIl3xmLAz-97" value="" style="endArrow=none;html=1;strokeWidth=4;fillColor=#d80073;strokeColor=#A50040;" parent="10" edge="1">
                    <mxGeometry width="50" height="50" relative="1" as="geometry">
                        <mxPoint x="60" y="64.33" as="sourcePoint"/>
                        <mxPoint x="120" y="64.33" as="targetPoint"/>
                    </mxGeometry>
                </mxCell>
                <mxCell id="12" value="Phase 2" style="text;align=left;verticalAlign=top;spacingLeft=4;spacingRight=4;overflow=hidden;rotatable=0;points=[[0,0.5],[1,0.5]];portConstraint=eastwest;" parent="10" vertex="1">
                    <mxGeometry y="52" width="140" height="26" as="geometry"/>
                </mxCell>
                <mxCell id="13" value="Phase 3" style="text;strokeColor=none;fillColor=none;align=left;verticalAlign=top;spacingLeft=4;spacingRight=4;overflow=hidden;rotatable=0;points=[[0,0.5],[1,0.5]];portConstraint=eastwest;" parent="10" vertex="1">
                    <mxGeometry y="78" width="140" height="26" as="geometry"/>
                </mxCell>
                <mxCell id="zOiM6K3O5fvbIl3xmLAz-102" value="" style="endArrow=none;html=1;strokeWidth=4;fillColor=#0050ef;strokeColor=#001DBC;" parent="10" edge="1">
                    <mxGeometry width="50" height="50" relative="1" as="geometry">
                        <mxPoint x="58.5" y="90" as="sourcePoint"/>
                        <mxPoint x="120" y="90" as="targetPoint"/>
                    </mxGeometry>
                </mxCell>
                <mxCell id="zOiM6K3O5fvbIl3xmLAz-63" value="" style="edgeStyle=orthogonalEdgeStyle;rounded=0;orthogonalLoop=1;jettySize=auto;html=1;" parent="1" source="zOiM6K3O5fvbIl3xmLAz-28" target="zOiM6K3O5fvbIl3xmLAz-61" edge="1">
                    <mxGeometry relative="1" as="geometry"/>
                </mxCell>
                <mxCell id="zOiM6K3O5fvbIl3xmLAz-28" value="Open App" style="rounded=1;whiteSpace=wrap;html=1;labelBackgroundColor=none;" parent="1" vertex="1">
                    <mxGeometry x="-220" y="450" width="120" height="60" as="geometry"/>
                </mxCell>
                <mxCell id="zOiM6K3O5fvbIl3xmLAz-26" value="Yes" style="edgeStyle=orthogonalEdgeStyle;curved=0;rounded=1;sketch=0;orthogonalLoop=1;jettySize=auto;html=1;" parent="1" source="zOiM6K3O5fvbIl3xmLAz-29" target="zOiM6K3O5fvbIl3xmLAz-25" edge="1">
                    <mxGeometry relative="1" as="geometry"/>
                </mxCell>
                <mxCell id="zOiM6K3O5fvbIl3xmLAz-29" value="&lt;p style=&quot;line-height: 90%&quot;&gt;View Homepage&lt;/p&gt;" style="whiteSpace=wrap;html=1;aspect=fixed;labelBackgroundColor=none;" parent="1" vertex="1">
                    <mxGeometry x="580" y="430" width="100" height="100" as="geometry"/>
                </mxCell>
                <mxCell id="zOiM6K3O5fvbIl3xmLAz-32" value="Link your google&lt;br&gt;&amp;nbsp;calender events?" style="rhombus;whiteSpace=wrap;html=1;labelBackgroundColor=none;" parent="1" vertex="1">
                    <mxGeometry x="350" y="500" width="150" height="150" as="geometry"/>
                </mxCell>
                <mxCell id="zOiM6K3O5fvbIl3xmLAz-36" value="End" style="rounded=1;whiteSpace=wrap;html=1;labelBackgroundColor=none;" parent="1" vertex="1">
                    <mxGeometry x="-220" y="755" width="120" height="60" as="geometry"/>
                </mxCell>
                <mxCell id="zOiM6K3O5fvbIl3xmLAz-40" value="" style="edgeStyle=orthogonalEdgeStyle;curved=0;rounded=1;sketch=0;orthogonalLoop=1;jettySize=auto;html=1;" parent="1" source="zOiM6K3O5fvbIl3xmLAz-38" edge="1">
                    <mxGeometry relative="1" as="geometry">
                        <mxPoint x="1160" y="480" as="targetPoint"/>
                    </mxGeometry>
                </mxCell>
                <mxCell id="zOiM6K3O5fvbIl3xmLAz-38" value="Add, Edit, or Delete Caleder Event?" style="rhombus;whiteSpace=wrap;html=1;labelBackgroundColor=none;fillColor=none;" parent="1" vertex="1">
                    <mxGeometry x="930" y="410" width="150" height="140" as="geometry"/>
                </mxCell>
                <mxCell id="zOiM6K3O5fvbIl3xmLAz-41" value="Add, Edit, or &lt;br&gt;Delete Todo or Priority list item?" style="rhombus;whiteSpace=wrap;html=1;labelBackgroundColor=none;fillColor=none;" parent="1" vertex="1">
                    <mxGeometry x="930" y="120" width="150" height="140" as="geometry"/>
                </mxCell>
                <mxCell id="zOiM6K3O5fvbIl3xmLAz-53" value="Add, Edit, or Delete&lt;br&gt;&amp;nbsp;Journal Entry?" style="rhombus;whiteSpace=wrap;html=1;labelBackgroundColor=none;fillColor=none;" parent="1" vertex="1">
                    <mxGeometry x="930" y="720" width="150" height="140" as="geometry"/>
                </mxCell>
                <mxCell id="zOiM6K3O5fvbIl3xmLAz-65" value="No" style="edgeStyle=orthogonalEdgeStyle;rounded=0;orthogonalLoop=1;jettySize=auto;html=1;" parent="1" source="zOiM6K3O5fvbIl3xmLAz-61" target="zOiM6K3O5fvbIl3xmLAz-62" edge="1">
                    <mxGeometry relative="1" as="geometry"/>
                </mxCell>
                <mxCell id="zOiM6K3O5fvbIl3xmLAz-61" value="Do you have an Account with ZenCal?" style="rhombus;whiteSpace=wrap;html=1;labelBackgroundColor=none;" parent="1" vertex="1">
                    <mxGeometry x="-60" y="390" width="180" height="180" as="geometry"/>
                </mxCell>
                <mxCell id="zOiM6K3O5fvbIl3xmLAz-66" value="No" style="edgeStyle=orthogonalEdgeStyle;rounded=0;orthogonalLoop=1;jettySize=auto;html=1;" parent="1" source="zOiM6K3O5fvbIl3xmLAz-62" target="zOiM6K3O5fvbIl3xmLAz-36" edge="1">
                    <mxGeometry relative="1" as="geometry"/>
                </mxCell>
                <mxCell id="zOiM6K3O5fvbIl3xmLAz-75" value="Yes" style="edgeStyle=orthogonalEdgeStyle;rounded=0;orthogonalLoop=1;jettySize=auto;html=1;" parent="1" source="zOiM6K3O5fvbIl3xmLAz-62" target="zOiM6K3O5fvbIl3xmLAz-74" edge="1">
                    <mxGeometry relative="1" as="geometry"/>
                </mxCell>
                <mxCell id="zOiM6K3O5fvbIl3xmLAz-62" value="Create a ZenCal account?" style="rhombus;whiteSpace=wrap;html=1;labelBackgroundColor=none;" parent="1" vertex="1">
                    <mxGeometry x="-45" y="710" width="150" height="150" as="geometry"/>
                </mxCell>
                <mxCell id="zOiM6K3O5fvbIl3xmLAz-20" value="Yes" style="edgeStyle=orthogonalEdgeStyle;curved=0;rounded=1;sketch=0;orthogonalLoop=1;jettySize=auto;html=1;exitX=0.5;exitY=0;exitDx=0;exitDy=0;" parent="1" source="zOiM6K3O5fvbIl3xmLAz-72" edge="1">
                    <mxGeometry relative="1" as="geometry">
                        <mxPoint x="325" y="630" as="targetPoint"/>
                    </mxGeometry>
                </mxCell>
                <mxCell id="zOiM6K3O5fvbIl3xmLAz-72" value="Create a Google&lt;br&gt;account?" style="rhombus;whiteSpace=wrap;html=1;labelBackgroundColor=none;" parent="1" vertex="1">
                    <mxGeometry x="370" y="710" width="150" height="150" as="geometry"/>
                </mxCell>
                <mxCell id="zOiM6K3O5fvbIl3xmLAz-16" value="Yes" style="edgeStyle=orthogonalEdgeStyle;curved=0;rounded=1;sketch=0;orthogonalLoop=1;jettySize=auto;html=1;" parent="1" source="zOiM6K3O5fvbIl3xmLAz-74" target="zOiM6K3O5fvbIl3xmLAz-32" edge="1">
                    <mxGeometry relative="1" as="geometry">
                        <Array as="points">
                            <mxPoint x="225" y="630"/>
                            <mxPoint x="345" y="630"/>
                        </Array>
                    </mxGeometry>
                </mxCell>
                <mxCell id="zOiM6K3O5fvbIl3xmLAz-17" value="No" style="edgeStyle=orthogonalEdgeStyle;curved=0;rounded=1;sketch=0;orthogonalLoop=1;jettySize=auto;html=1;" parent="1" source="zOiM6K3O5fvbIl3xmLAz-74" target="zOiM6K3O5fvbIl3xmLAz-72" edge="1">
                    <mxGeometry relative="1" as="geometry"/>
                </mxCell>
                <mxCell id="zOiM6K3O5fvbIl3xmLAz-74" value="Do you have a&lt;br&gt;Google account?" style="rhombus;whiteSpace=wrap;html=1;labelBackgroundColor=none;" parent="1" vertex="1">
                    <mxGeometry x="150" y="710" width="150" height="150" as="geometry"/>
                </mxCell>
                <mxCell id="zOiM6K3O5fvbIl3xmLAz-77" value="" style="edgeStyle=orthogonalEdgeStyle;curved=0;rounded=1;sketch=0;orthogonalLoop=1;jettySize=auto;html=1;" parent="1" source="zOiM6K3O5fvbIl3xmLAz-78" target="zOiM6K3O5fvbIl3xmLAz-41" edge="1">
                    <mxGeometry relative="1" as="geometry"/>
                </mxCell>
                <mxCell id="zOiM6K3O5fvbIl3xmLAz-78" value="Todo List" style="whiteSpace=wrap;html=1;aspect=fixed;labelBackgroundColor=none;fillColor=none;" parent="1" vertex="1">
                    <mxGeometry x="760" y="140" width="100" height="100" as="geometry"/>
                </mxCell>
                <mxCell id="zOiM6K3O5fvbIl3xmLAz-73" value="" style="edgeStyle=orthogonalEdgeStyle;curved=0;rounded=1;sketch=0;orthogonalLoop=1;jettySize=auto;html=1;" parent="1" source="zOiM6K3O5fvbIl3xmLAz-79" target="zOiM6K3O5fvbIl3xmLAz-53" edge="1">
                    <mxGeometry relative="1" as="geometry"/>
                </mxCell>
                <mxCell id="zOiM6K3O5fvbIl3xmLAz-79" value="Journal" style="whiteSpace=wrap;html=1;aspect=fixed;labelBackgroundColor=none;fillColor=none;" parent="1" vertex="1">
                    <mxGeometry x="760" y="740" width="100" height="100" as="geometry"/>
                </mxCell>
                <mxCell id="zOiM6K3O5fvbIl3xmLAz-21" value="Yes" style="endArrow=classic;html=1;exitX=1;exitY=0.5;exitDx=0;exitDy=0;entryX=0;entryY=0.5;entryDx=0;entryDy=0;" parent="1" source="zOiM6K3O5fvbIl3xmLAz-61" target="zOiM6K3O5fvbIl3xmLAz-29" edge="1">
                    <mxGeometry width="50" height="50" relative="1" as="geometry">
                        <mxPoint x="380" y="760" as="sourcePoint"/>
                        <mxPoint x="430" y="710" as="targetPoint"/>
                    </mxGeometry>
                </mxCell>
                <mxCell id="zOiM6K3O5fvbIl3xmLAz-22" value="" style="endArrow=classic;html=1;exitX=1;exitY=0.5;exitDx=0;exitDy=0;entryX=0.5;entryY=1;entryDx=0;entryDy=0;" parent="1" source="zOiM6K3O5fvbIl3xmLAz-32" target="zOiM6K3O5fvbIl3xmLAz-29" edge="1">
                    <mxGeometry width="50" height="50" relative="1" as="geometry">
                        <mxPoint x="380" y="760" as="sourcePoint"/>
                        <mxPoint x="430" y="710" as="targetPoint"/>
                        <Array as="points">
                            <mxPoint x="630" y="575"/>
                        </Array>
                    </mxGeometry>
                </mxCell>
                <mxCell id="zOiM6K3O5fvbIl3xmLAz-24" value="" style="endArrow=none;html=1;exitX=1;exitY=0.5;exitDx=0;exitDy=0;" parent="1" source="zOiM6K3O5fvbIl3xmLAz-72" edge="1">
                    <mxGeometry width="50" height="50" relative="1" as="geometry">
                        <mxPoint x="380" y="760" as="sourcePoint"/>
                        <mxPoint x="630" y="570" as="targetPoint"/>
                        <Array as="points">
                            <mxPoint x="630" y="785"/>
                        </Array>
                    </mxGeometry>
                </mxCell>
                <mxCell id="zOiM6K3O5fvbIl3xmLAz-39" value="" style="edgeStyle=orthogonalEdgeStyle;curved=0;rounded=1;sketch=0;orthogonalLoop=1;jettySize=auto;html=1;" parent="1" source="zOiM6K3O5fvbIl3xmLAz-25" target="zOiM6K3O5fvbIl3xmLAz-38" edge="1">
                    <mxGeometry relative="1" as="geometry"/>
                </mxCell>
                <mxCell id="zOiM6K3O5fvbIl3xmLAz-25" value="&lt;p style=&quot;line-height: 90%&quot;&gt;Calender&lt;/p&gt;" style="whiteSpace=wrap;html=1;aspect=fixed;labelBackgroundColor=none;" parent="1" vertex="1">
                    <mxGeometry x="760" y="430" width="100" height="100" as="geometry"/>
                </mxCell>
                <mxCell id="zOiM6K3O5fvbIl3xmLAz-43" value="" style="endArrow=classic;html=1;entryX=0;entryY=0.5;entryDx=0;entryDy=0;exitX=1;exitY=0.5;exitDx=0;exitDy=0;" parent="1" source="zOiM6K3O5fvbIl3xmLAz-38" edge="1">
                    <mxGeometry width="50" height="50" relative="1" as="geometry">
                        <mxPoint x="1100" y="480" as="sourcePoint"/>
                        <mxPoint x="1160" y="390" as="targetPoint"/>
                    </mxGeometry>
                </mxCell>
                <mxCell id="zOiM6K3O5fvbIl3xmLAz-46" value="Add &lt;br&gt;Calendar&lt;br&gt;Event" style="whiteSpace=wrap;html=1;aspect=fixed;rounded=0;sketch=0;" parent="1" vertex="1">
                    <mxGeometry x="1160" y="345" width="80" height="80" as="geometry"/>
                </mxCell>
                <mxCell id="zOiM6K3O5fvbIl3xmLAz-47" value="Edit&lt;br&gt;Calendar&lt;br&gt;Event" style="whiteSpace=wrap;html=1;aspect=fixed;rounded=0;sketch=0;" parent="1" vertex="1">
                    <mxGeometry x="1160" y="440" width="80" height="80" as="geometry"/>
                </mxCell>
                <mxCell id="zOiM6K3O5fvbIl3xmLAz-48" value="Delete&lt;br&gt;Calendar&lt;br&gt;Event" style="whiteSpace=wrap;html=1;aspect=fixed;rounded=0;sketch=0;" parent="1" vertex="1">
                    <mxGeometry x="1160" y="535" width="80" height="80" as="geometry"/>
                </mxCell>
                <mxCell id="zOiM6K3O5fvbIl3xmLAz-49" value="Add &lt;br&gt;Journal&lt;br&gt;Entry" style="whiteSpace=wrap;html=1;aspect=fixed;rounded=0;sketch=0;" parent="1" vertex="1">
                    <mxGeometry x="1160" y="655" width="80" height="80" as="geometry"/>
                </mxCell>
                <mxCell id="zOiM6K3O5fvbIl3xmLAz-50" value="Edit&lt;br&gt;Journal&lt;br&gt;Entry" style="whiteSpace=wrap;html=1;aspect=fixed;rounded=0;sketch=0;" parent="1" vertex="1">
                    <mxGeometry x="1160" y="750" width="80" height="80" as="geometry"/>
                </mxCell>
                <mxCell id="zOiM6K3O5fvbIl3xmLAz-51" value="Delete&lt;br&gt;Journal&lt;br&gt;Entry" style="whiteSpace=wrap;html=1;aspect=fixed;rounded=0;sketch=0;" parent="1" vertex="1">
                    <mxGeometry x="1160" y="845" width="80" height="80" as="geometry"/>
                </mxCell>
                <mxCell id="zOiM6K3O5fvbIl3xmLAz-52" value="Add&lt;br&gt;item to&amp;nbsp;&lt;br&gt;Todo&lt;br&gt;List" style="whiteSpace=wrap;html=1;aspect=fixed;rounded=0;sketch=0;" parent="1" vertex="1">
                    <mxGeometry x="1160" y="50" width="80" height="80" as="geometry"/>
                </mxCell>
                <mxCell id="zOiM6K3O5fvbIl3xmLAz-54" value="Edit&lt;br&gt;item to&amp;nbsp;&lt;br&gt;Todo&lt;br&gt;List" style="whiteSpace=wrap;html=1;aspect=fixed;rounded=0;sketch=0;" parent="1" vertex="1">
                    <mxGeometry x="1160" y="145" width="80" height="80" as="geometry"/>
                </mxCell>
                <mxCell id="zOiM6K3O5fvbIl3xmLAz-55" value="Delete&lt;br&gt;item to&amp;nbsp;&lt;br&gt;Todo&lt;br&gt;List" style="whiteSpace=wrap;html=1;aspect=fixed;rounded=0;sketch=0;" parent="1" vertex="1">
                    <mxGeometry x="1160" y="240" width="80" height="80" as="geometry"/>
                </mxCell>
                <mxCell id="zOiM6K3O5fvbIl3xmLAz-56" value="" style="endArrow=classic;html=1;exitX=1;exitY=0.5;exitDx=0;exitDy=0;entryX=0;entryY=0.5;entryDx=0;entryDy=0;" parent="1" source="zOiM6K3O5fvbIl3xmLAz-38" target="zOiM6K3O5fvbIl3xmLAz-48" edge="1">
                    <mxGeometry width="50" height="50" relative="1" as="geometry">
                        <mxPoint x="1100" y="640" as="sourcePoint"/>
                        <mxPoint x="1150" y="590" as="targetPoint"/>
                    </mxGeometry>
                </mxCell>
                <mxCell id="zOiM6K3O5fvbIl3xmLAz-57" value="" style="endArrow=classic;html=1;exitX=1;exitY=0.5;exitDx=0;exitDy=0;entryX=0;entryY=0.5;entryDx=0;entryDy=0;" parent="1" source="zOiM6K3O5fvbIl3xmLAz-53" target="zOiM6K3O5fvbIl3xmLAz-49" edge="1">
                    <mxGeometry width="50" height="50" relative="1" as="geometry">
                        <mxPoint x="1100" y="750" as="sourcePoint"/>
                        <mxPoint x="1150" y="700" as="targetPoint"/>
                    </mxGeometry>
                </mxCell>
                <mxCell id="zOiM6K3O5fvbIl3xmLAz-58" value="" style="endArrow=classic;html=1;exitX=1;exitY=0.5;exitDx=0;exitDy=0;entryX=0;entryY=0.5;entryDx=0;entryDy=0;" parent="1" source="zOiM6K3O5fvbIl3xmLAz-53" target="zOiM6K3O5fvbIl3xmLAz-50" edge="1">
                    <mxGeometry width="50" height="50" relative="1" as="geometry">
                        <mxPoint x="1100" y="750" as="sourcePoint"/>
                        <mxPoint x="1150" y="700" as="targetPoint"/>
                    </mxGeometry>
                </mxCell>
                <mxCell id="zOiM6K3O5fvbIl3xmLAz-59" value="" style="endArrow=classic;html=1;exitX=1;exitY=0.5;exitDx=0;exitDy=0;entryX=0;entryY=0.5;entryDx=0;entryDy=0;" parent="1" source="zOiM6K3O5fvbIl3xmLAz-53" target="zOiM6K3O5fvbIl3xmLAz-51" edge="1">
                    <mxGeometry width="50" height="50" relative="1" as="geometry">
                        <mxPoint x="1100" y="750" as="sourcePoint"/>
                        <mxPoint x="1150" y="700" as="targetPoint"/>
                    </mxGeometry>
                </mxCell>
                <mxCell id="zOiM6K3O5fvbIl3xmLAz-67" value="Yes" style="endArrow=classic;html=1;entryX=0;entryY=0.5;entryDx=0;entryDy=0;" parent="1" target="zOiM6K3O5fvbIl3xmLAz-79" edge="1">
                    <mxGeometry width="50" height="50" relative="1" as="geometry">
                        <mxPoint x="710" y="480" as="sourcePoint"/>
                        <mxPoint x="758" y="804" as="targetPoint"/>
                        <Array as="points">
                            <mxPoint x="710" y="790"/>
                            <mxPoint x="730" y="790"/>
                        </Array>
                    </mxGeometry>
                </mxCell>
                <mxCell id="zOiM6K3O5fvbIl3xmLAz-68" value="" style="endArrow=classic;html=1;entryX=0;entryY=0.563;entryDx=0;entryDy=0;entryPerimeter=0;" parent="1" source="zOiM6K3O5fvbIl3xmLAz-41" target="zOiM6K3O5fvbIl3xmLAz-54" edge="1">
                    <mxGeometry width="50" height="50" relative="1" as="geometry">
                        <mxPoint x="1100" y="240" as="sourcePoint"/>
                        <mxPoint x="1150" y="190" as="targetPoint"/>
                    </mxGeometry>
                </mxCell>
                <mxCell id="zOiM6K3O5fvbIl3xmLAz-69" value="" style="endArrow=classic;html=1;exitX=1;exitY=0.5;exitDx=0;exitDy=0;entryX=0;entryY=0.5;entryDx=0;entryDy=0;" parent="1" source="zOiM6K3O5fvbIl3xmLAz-41" target="zOiM6K3O5fvbIl3xmLAz-55" edge="1">
                    <mxGeometry width="50" height="50" relative="1" as="geometry">
                        <mxPoint x="1100" y="240" as="sourcePoint"/>
                        <mxPoint x="1150" y="190" as="targetPoint"/>
                    </mxGeometry>
                </mxCell>
                <mxCell id="zOiM6K3O5fvbIl3xmLAz-71" value="" style="endArrow=classic;html=1;exitX=1;exitY=0.5;exitDx=0;exitDy=0;entryX=0;entryY=0.5;entryDx=0;entryDy=0;" parent="1" source="zOiM6K3O5fvbIl3xmLAz-41" target="zOiM6K3O5fvbIl3xmLAz-52" edge="1">
                    <mxGeometry width="50" height="50" relative="1" as="geometry">
                        <mxPoint x="1100" y="220" as="sourcePoint"/>
                        <mxPoint x="1150" y="170" as="targetPoint"/>
                    </mxGeometry>
                </mxCell>
                <mxCell id="zOiM6K3O5fvbIl3xmLAz-76" value="Yrd" style="endArrow=classic;html=1;entryX=0;entryY=0.5;entryDx=0;entryDy=0;" parent="1" target="zOiM6K3O5fvbIl3xmLAz-78" edge="1">
                    <mxGeometry width="50" height="50" relative="1" as="geometry">
                        <mxPoint x="710" y="480" as="sourcePoint"/>
                        <mxPoint x="760" y="430" as="targetPoint"/>
                        <Array as="points">
                            <mxPoint x="710" y="190"/>
                        </Array>
                    </mxGeometry>
                </mxCell>
                <mxCell id="zOiM6K3O5fvbIl3xmLAz-80" value="" style="endArrow=none;html=1;fillColor=#60a917;strokeColor=#2D7600;strokeWidth=4;" parent="1" edge="1">
                    <mxGeometry width="50" height="50" relative="1" as="geometry">
                        <mxPoint x="-240" y="920" as="sourcePoint"/>
                        <mxPoint x="670" y="920" as="targetPoint"/>
                    </mxGeometry>
                </mxCell>
                <mxCell id="zOiM6K3O5fvbIl3xmLAz-85" value="" style="endArrow=none;html=1;strokeWidth=4;fillColor=#60a917;strokeColor=#2D7600;" parent="1" edge="1">
                    <mxGeometry width="50" height="50" relative="1" as="geometry">
                        <mxPoint x="670" y="920" as="sourcePoint"/>
                        <mxPoint x="670" y="640" as="targetPoint"/>
                    </mxGeometry>
                </mxCell>
                <mxCell id="zOiM6K3O5fvbIl3xmLAz-86" value="" style="endArrow=none;html=1;strokeWidth=4;fillColor=#60a917;strokeColor=#2D7600;" parent="1" edge="1">
                    <mxGeometry width="50" height="50" relative="1" as="geometry">
                        <mxPoint x="670" y="640" as="sourcePoint"/>
                        <mxPoint x="1713" y="640" as="targetPoint"/>
                    </mxGeometry>
                </mxCell>
                <mxCell id="zOiM6K3O5fvbIl3xmLAz-88" value="" style="endArrow=none;html=1;strokeWidth=4;fillColor=#60a917;strokeColor=#2D7600;" parent="1" edge="1">
                    <mxGeometry width="50" height="50" relative="1" as="geometry">
                        <mxPoint x="670" y="330" as="sourcePoint"/>
                        <mxPoint x="1713" y="330" as="targetPoint"/>
                    </mxGeometry>
                </mxCell>
                <mxCell id="zOiM6K3O5fvbIl3xmLAz-89" value="" style="endArrow=none;html=1;strokeWidth=4;fillColor=#60a917;strokeColor=#2D7600;" parent="1" edge="1">
                    <mxGeometry width="50" height="50" relative="1" as="geometry">
                        <mxPoint x="-240" y="330" as="sourcePoint"/>
                        <mxPoint x="673" y="330" as="targetPoint"/>
                    </mxGeometry>
                </mxCell>
                <mxCell id="zOiM6K3O5fvbIl3xmLAz-90" value="" style="endArrow=none;html=1;strokeWidth=4;fillColor=#60a917;strokeColor=#2D7600;" parent="1" edge="1">
                    <mxGeometry width="50" height="50" relative="1" as="geometry">
                        <mxPoint x="-240" y="330" as="sourcePoint"/>
                        <mxPoint x="-240" y="920" as="targetPoint"/>
                    </mxGeometry>
                </mxCell>
                <mxCell id="zOiM6K3O5fvbIl3xmLAz-91" value="" style="endArrow=none;html=1;strokeWidth=4;fillColor=#60a917;strokeColor=#2D7600;" parent="1" edge="1">
                    <mxGeometry width="50" height="50" relative="1" as="geometry">
                        <mxPoint x="1710" y="330" as="sourcePoint"/>
                        <mxPoint x="1710" y="640" as="targetPoint"/>
                    </mxGeometry>
                </mxCell>
                <mxCell id="zOiM6K3O5fvbIl3xmLAz-93" value="" style="endArrow=none;html=1;strokeWidth=4;fillColor=#d80073;strokeColor=#A50040;" parent="1" edge="1">
                    <mxGeometry width="50" height="50" relative="1" as="geometry">
                        <mxPoint x="670" y="20" as="sourcePoint"/>
                        <mxPoint x="1713" y="20" as="targetPoint"/>
                    </mxGeometry>
                </mxCell>
                <mxCell id="zOiM6K3O5fvbIl3xmLAz-94" value="" style="endArrow=none;html=1;strokeWidth=4;fillColor=#d80073;strokeColor=#A50040;" parent="1" edge="1">
                    <mxGeometry width="50" height="50" relative="1" as="geometry">
                        <mxPoint x="670" y="318.67" as="sourcePoint"/>
                        <mxPoint x="1713" y="318.67" as="targetPoint"/>
                    </mxGeometry>
                </mxCell>
                <mxCell id="zOiM6K3O5fvbIl3xmLAz-95" value="" style="endArrow=none;html=1;strokeWidth=4;fillColor=#d80073;strokeColor=#A50040;" parent="1" edge="1">
                    <mxGeometry width="50" height="50" relative="1" as="geometry">
                        <mxPoint x="670" y="20" as="sourcePoint"/>
                        <mxPoint x="670" y="320" as="targetPoint"/>
                    </mxGeometry>
                </mxCell>
                <mxCell id="zOiM6K3O5fvbIl3xmLAz-96" value="" style="endArrow=none;html=1;strokeWidth=4;fillColor=#d80073;strokeColor=#A50040;" parent="1" edge="1">
                    <mxGeometry width="50" height="50" relative="1" as="geometry">
                        <mxPoint x="1710" y="20" as="sourcePoint"/>
                        <mxPoint x="1710" y="320" as="targetPoint"/>
                    </mxGeometry>
                </mxCell>
                <mxCell id="zOiM6K3O5fvbIl3xmLAz-98" value="" style="endArrow=none;html=1;strokeWidth=4;fillColor=#0050ef;strokeColor=#001DBC;" parent="1" edge="1">
                    <mxGeometry width="50" height="50" relative="1" as="geometry">
                        <mxPoint x="690" y="650" as="sourcePoint"/>
                        <mxPoint x="1713" y="650" as="targetPoint"/>
                    </mxGeometry>
                </mxCell>
                <mxCell id="zOiM6K3O5fvbIl3xmLAz-99" value="" style="endArrow=none;html=1;strokeWidth=4;fillColor=#0050ef;strokeColor=#001DBC;" parent="1" edge="1">
                    <mxGeometry width="50" height="50" relative="1" as="geometry">
                        <mxPoint x="688.5" y="960" as="sourcePoint"/>
                        <mxPoint x="1711.5" y="960" as="targetPoint"/>
                    </mxGeometry>
                </mxCell>
                <mxCell id="zOiM6K3O5fvbIl3xmLAz-100" value="" style="endArrow=none;html=1;strokeWidth=4;fillColor=#0050ef;strokeColor=#001DBC;" parent="1" edge="1">
                    <mxGeometry width="50" height="50" relative="1" as="geometry">
                        <mxPoint x="690" y="650" as="sourcePoint"/>
                        <mxPoint x="690" y="960" as="targetPoint"/>
                    </mxGeometry>
                </mxCell>
                <mxCell id="zOiM6K3O5fvbIl3xmLAz-101" value="" style="endArrow=none;html=1;strokeWidth=4;fillColor=#0050ef;strokeColor=#001DBC;" parent="1" edge="1">
                    <mxGeometry width="50" height="50" relative="1" as="geometry">
                        <mxPoint x="1710" y="650" as="sourcePoint"/>
                        <mxPoint x="1710" y="960" as="targetPoint"/>
                    </mxGeometry>
                </mxCell>
                <mxCell id="zOiM6K3O5fvbIl3xmLAz-103" value="No" style="endArrow=classic;html=1;strokeWidth=1;exitX=0.5;exitY=0;exitDx=0;exitDy=0;" parent="1" source="zOiM6K3O5fvbIl3xmLAz-29" edge="1">
                    <mxGeometry width="50" height="50" relative="1" as="geometry">
                        <mxPoint x="770" y="570" as="sourcePoint"/>
                        <mxPoint x="630" y="260" as="targetPoint"/>
                    </mxGeometry>
                </mxCell>
                <mxCell id="zOiM6K3O5fvbIl3xmLAz-104" value="Signout" style="rounded=1;whiteSpace=wrap;html=1;labelBackgroundColor=none;" parent="1" vertex="1">
                    <mxGeometry x="590" y="200" width="70" height="60" as="geometry"/>
                </mxCell>
            </root>
        </mxGraphModel>
    </diagram>
    <diagram id="lE-pU197nKqY68ybDANk" name="Page-2">
        <mxGraphModel grid="1" gridSize="10" guides="1" tooltips="1" connect="1" arrows="1" page="1" fold="1" pageScale="1" pageWidth="1100" pageHeight="850" math="0" shadow="0">
            <root>
                <mxCell id="uzmnJh3EcKuwLuWwUeD3-0"/>
                <mxCell id="uzmnJh3EcKuwLuWwUeD3-1" parent="uzmnJh3EcKuwLuWwUeD3-0"/>
            </root>
        </mxGraphModel>
    </diagram>
</mxfile>